<?xml version="1.0" standalone="no"?>
<!DOCTYPE svg PUBLIC "-//W3C//DTD SVG 20010904//EN"
 "http://www.w3.org/TR/2001/REC-SVG-20010904/DTD/svg10.dtd">
<svg version="1.0" xmlns="http://www.w3.org/2000/svg"
 width="700.000000pt" height="700.000000pt" viewBox="0 0 700.000000 700.000000"
 preserveAspectRatio="xMidYMid meet">
<metadata>
Created by potrace 1.11, written by Peter Selinger 2001-2013
</metadata>
<g transform="translate(0.000000,700.000000) scale(0.100000,-0.100000)"
fill="#000000" stroke="none">
<path d="M3379 6416 c-2 -2 -47 -6 -99 -10 -141 -9 -300 -32 -430 -62 -36 -9
-72 -17 -81 -19 -32 -7 -220 -64 -229 -70 -6 -3 -18 -8 -29 -10 -42 -8 -293
-120 -403 -180 -294 -160 -537 -351 -778 -611 -59 -64 -68 -75 -146 -174 -297
-377 -522 -912 -578 -1370 -21 -167 -26 -253 -26 -380 1 -112 2 -150 5 -150 1
0 37 13 81 29 186 68 300 87 524 85 292 -2 543 -81 793 -247 97 -64 302 -259
351 -333 20 -31 37 -44 69 -53 23 -7 80 -30 126 -52 352 -164 599 -489 664
-874 14 -81 15 -286 2 -360 -43 -253 -161 -477 -344 -654 -64 -62 -201 -167
-231 -176 -11 -3 -20 -10 -20 -14 0 -13 219 -74 350 -97 14 -2 35 -6 47 -9 12
-3 41 -8 65 -11 24 -3 54 -7 68 -9 181 -27 577 -27 750 1 122 19 220 36 250
44 19 5 46 11 60 14 14 3 57 14 95 26 39 11 78 22 88 25 10 2 44 14 75 26 31
11 62 22 67 24 16 3 46 15 92 36 24 10 46 19 49 19 13 0 265 130 337 174 349
212 634 474 876 805 33 47 61 87 61 90 0 3 -69 6 -152 6 -157 0 -254 7 -368
25 -36 6 -78 13 -95 16 -16 3 -37 7 -45 9 -8 2 -26 6 -40 9 -60 12 -225 57
-311 86 -167 56 -326 128 -541 243 -51 27 -270 170 -303 198 -11 9 -56 46
-100 81 -129 102 -328 305 -430 438 -28 36 -53 67 -56 70 -9 8 -102 148 -149
225 -185 301 -327 675 -389 1021 -31 173 -36 242 -36 489 0 247 7 332 40 495
2 14 7 41 10 60 9 54 53 226 81 315 66 206 178 458 277 623 59 99 78 138 56
118z"/>
<path d="M1040 2908 c-425 -65 -734 -415 -745 -843 -10 -366 203 -694 540
-831 154 -63 184 -66 741 -66 276 0 524 3 550 6 242 35 442 228 487 469 36
190 -21 375 -158 513 -116 117 -248 174 -408 176 -53 1 -60 3 -68 27 -60 157
-192 319 -334 412 -71 46 -89 55 -155 82 -135 53 -315 76 -450 55z"/>
</g>
</svg>
